<?xml version="1.0" standalone="no"?>
<!DOCTYPE svg PUBLIC "-//W3C//DTD SVG 20010904//EN"
 "http://www.w3.org/TR/2001/REC-SVG-20010904/DTD/svg10.dtd">
<svg version="1.0" xmlns="http://www.w3.org/2000/svg"
 width="1024.000000pt" height="1024.000000pt" viewBox="0 0 1024.000000 1024.000000"
 preserveAspectRatio="xMidYMid meet">
<metadata>
Created by potrace 1.11, written by Peter Selinger 2001-2013
</metadata>
<g transform="translate(0.000000,1024.000000) scale(0.100000,-0.100000)"
fill="#000000" stroke="none">
<path d="M4910 7844 c-470 -43 -840 -144 -1235 -339 -969 -477 -1640 -1392
-1806 -2465 -29 -189 -43 -469 -33 -640 l9 -145 993 -3 992 -2 0 -890 0 -890
325 0 325 0 0 890 0 890 600 0 600 0 0 -875 0 -875 325 0 325 0 0 875 0 875
1049 0 1048 0 7 59 c10 91 8 433 -4 551 -75 755 -393 1441 -920 1984 -530 545
-1195 878 -1965 981 -115 16 -534 28 -635 19z m560 -730 c932 -119 1728 -741
2081 -1627 65 -163 149 -483 149 -568 0 -19 -21 -19 -1610 -19 l-1610 0 0 570
0 570 -325 0 -325 0 0 -570 0 -570 -630 0 -630 0 5 23 c2 12 9 51 15 87 66
392 268 832 537 1165 103 128 320 339 443 431 421 316 913 497 1435 528 101 6
344 -5 465 -20z"/>
<path d="M5881 6240 c-184 -39 -338 -201 -372 -391 -42 -233 117 -471 356
-534 255 -66 521 102 576 362 16 78 7 195 -21 266 -47 125 -167 240 -290 281
-65 21 -187 29 -249 16z"/>
</g>
</svg>
